<svg width="100" height="100" viewBox="0 0 100 100" fill="none" xmlns="http://www.w3.org/2000/svg">
<path d="M79.3724 20.4583C75.5524 16.5996 71.0023 13.5402 65.9876 11.4585C60.9728 9.37673 55.5937 8.31434 50.1641 8.33326C27.4141 8.33326 8.8724 26.8749 8.8724 49.6249C8.8724 56.9166 10.7891 63.9999 14.3724 70.2499L8.53906 91.6666L30.4141 85.9166C36.4557 89.2083 43.2474 90.9583 50.1641 90.9583C72.9141 90.9583 91.4557 72.4166 91.4557 49.6666C91.4557 38.6249 87.1641 28.2499 79.3724 20.4583ZM50.1641 83.9582C43.9974 83.9582 37.9557 82.2916 32.6641 79.1666L31.4141 78.4166L18.4141 81.8332L21.8724 69.1666L21.0391 67.8749C17.613 62.404 15.7938 56.0801 15.7891 49.6249C15.7891 30.7083 31.2057 15.2916 50.1224 15.2916C59.2891 15.2916 67.9141 18.8749 74.3724 25.3749C77.5702 28.5581 80.1045 32.3443 81.8282 36.5142C83.5519 40.684 84.4309 45.1545 84.4141 49.6666C84.4974 68.5833 69.0807 83.9582 50.1641 83.9582ZM68.9974 58.2916C67.9557 57.7916 62.8724 55.2916 61.9557 54.9166C60.9974 54.5833 60.3307 54.4166 59.6224 55.4166C58.9141 56.4583 56.9557 58.7916 56.3724 59.4583C55.7891 60.1666 55.1641 60.2499 54.1224 59.7083C53.0807 59.2083 49.7474 58.0833 45.8307 54.5833C42.7474 51.8333 40.7057 48.4583 40.0807 47.4166C39.4974 46.3749 39.9974 45.8333 40.5391 45.2916C40.9974 44.8333 41.5807 44.0833 42.0807 43.4999C42.5807 42.9166 42.7891 42.4583 43.1224 41.7916C43.4557 41.0833 43.2891 40.4999 43.0391 39.9999C42.7891 39.4999 40.7057 34.4166 39.8724 32.3333C39.0391 30.3333 38.1641 30.5833 37.5391 30.5416H35.5391C34.8307 30.5416 33.7474 30.7916 32.7891 31.8333C31.8724 32.8749 29.2057 35.3749 29.2057 40.4583C29.2057 45.5416 32.9141 50.4583 33.4141 51.1249C33.9141 51.8333 40.7057 62.2499 51.0391 66.7083C53.4974 67.7916 55.4141 68.4166 56.9141 68.8749C59.3724 69.6666 61.6224 69.5416 63.4141 69.2916C65.4141 68.9999 69.5391 66.7916 70.3724 64.3749C71.2474 61.9583 71.2474 59.9166 70.9557 59.4583C70.6641 58.9999 70.0391 58.7916 68.9974 58.2916Z" fill="#F8F8F8"/>
</svg>
